# 3ds Max Wavefront OBJ Exporter v0.97b - (c)2007 guruware
# File Created: 04.09.2016 12:42:16

mtllib TrackPiece_Straight_Long.mtl

#
# object Object001
#

v  3.534449 4.459338 3.596310
v  3.534449 4.459338 1.716923
v  3.534449 -4.459338 1.716923
v  3.534449 -4.459338 3.596310
v  -3.534450 -4.459338 3.596310
v  -3.534450 -4.459338 1.716923
v  -3.534450 4.459338 1.716923
v  -3.534450 4.459338 3.596310
v  3.234449 4.459338 1.716923
v  3.234449 -4.459338 1.716923
v  3.234449 -4.459338 3.596310
v  3.234449 4.459338 3.596310
v  -3.234450 -4.459338 1.716923
v  -3.234450 4.459338 1.716923
v  -3.234450 4.459338 3.596310
v  -3.234450 -4.459338 3.596310
v  -3.234450 -6.000000 1.313233
v  -3.174337 -6.000000 1.021823
v  -3.174337 6.000000 1.021823
v  -3.234450 6.000000 1.313233
v  -2.472347 -6.000000 0.136343
v  -2.139163 -6.000000 0.039114
v  -2.139163 6.000000 0.039114
v  -2.472347 6.000000 0.136343
v  -3.026149 -6.000000 0.645155
v  -2.776060 -6.000000 0.333034
v  -2.776060 6.000000 0.333034
v  -3.026149 6.000000 0.645155
v  -3.678049 -6.000000 0.000000
v  -3.678049 -6.000000 4.000000
v  -3.678049 6.000000 4.000000
v  -3.678049 6.000000 0.000000
v  -1.796233 -6.000000 0.000000
v  -1.796233 6.000000 0.000000
v  3.234449 6.000000 1.313233
v  3.174337 6.000000 1.021823
v  3.174338 -6.000000 1.021823
v  3.234450 -6.000000 1.313233
v  2.472347 6.000000 0.136343
v  2.139163 6.000000 0.039114
v  2.139163 -6.000000 0.039114
v  2.472347 -6.000000 0.136343
v  3.026149 6.000000 0.645155
v  2.776059 6.000000 0.333034
v  2.776060 -6.000000 0.333034
v  3.026150 -6.000000 0.645155
v  3.678048 6.000000 4.000000
v  3.234449 6.000000 4.000000
v  3.234450 -6.000000 4.000000
v  3.678049 -6.000000 4.000000
v  3.678048 6.000000 0.000000
v  3.678049 -6.000000 0.000000
v  1.796233 6.000000 0.000000
v  1.796234 -6.000000 0.000000
v  0.000000 6.000000 0.000000
v  0.000000 -6.000000 0.000000
v  -3.234450 -6.000000 4.000000
v  -3.234450 6.000000 4.000000
v  -3.234450 6.000000 25.000000
v  -3.234450 -6.000000 25.000000
v  3.234450 -6.000000 25.000000
v  3.234449 6.000000 25.000000
v  -3.235499 4.459338 3.596310
# 63 vertices

vn -1.000000 0.000000 0.000000
vn 1.000000 0.000000 0.000000
vn 0.000000 0.000000 1.000000
vn 0.000000 1.000000 0.000000
vn 0.000000 0.000000 -1.000000
vn 0.000000 -1.000000 0.000000
vn 0.994800 0.000000 0.101500
vn 0.958500 0.000000 0.285100
vn 0.416200 0.000000 0.909200
vn 0.197400 0.000000 0.980300
vn 0.865200 0.000000 0.501300
vn 0.670600 0.000000 0.741800
vn -0.707100 0.000000 0.707100
vn 0.056700 0.000000 0.998400
vn -0.994800 0.000000 0.101500
vn -0.958500 0.000000 0.285100
vn -0.416200 0.000000 0.909200
vn -0.197400 0.000000 0.980300
vn -0.865200 0.000000 0.501300
vn -0.670600 0.000000 0.741800
vn 0.707100 0.000000 0.707100
vn -0.056700 0.000000 0.998400
vn -1.000000 -0.000000 -0.000000
vn -1.000000 -0.000000 0.000000
vn 1.000000 0.000000 0.000001
vn 1.000000 -0.000341 0.000230
vn 0.999999 0.000050 -0.001300
vn 1.000000 0.000059 0.000279
# 28 vertex normals

vt 0.993949 0.415911 0.000000
vt 0.993949 0.636864 0.000000
vt 0.007100 0.636868 0.000000
vt 0.007099 0.415914 0.000000
vt 0.993950 0.636864 0.000000
vt 0.993950 0.661333 0.000000
vt 0.007101 0.661337 0.000000
vt 0.993950 0.757271 0.000000
vt 0.993950 0.785815 0.000000
vt 0.007101 0.785816 0.000000
vt 0.007101 0.757273 0.000000
vt 0.993950 0.694620 0.000000
vt 0.993950 0.727514 0.000000
vt 0.007101 0.727516 0.000000
vt 0.007100 0.694624 0.000000
vt 0.993949 0.050483 0.000000
vt 0.993949 0.379433 0.000000
vt 0.007100 0.379434 0.000000
vt 0.007099 0.050484 0.000000
vt 0.993950 0.814201 0.000000
vt 0.007101 0.814200 0.000000
vt 0.993950 0.961918 0.000000
vt 0.007100 0.961918 0.000000
vt 0.993950 0.961919 0.000000
vt 0.499868 0.000132 0.000000
vt 0.000132 0.000132 0.000000
vt 0.000132 0.874669 0.000000
vt 0.499868 0.874669 0.000000
vt 0.999868 0.000132 0.000000
vt 0.500132 0.000132 0.000000
vt 0.500132 0.874669 0.000000
vt 0.999868 0.874669 0.000000
# 32 texture coords

g Object001
usemtl _TrackPiece_Straight_LongMaterial
s 1
f 1/1/1 2/2/1 3/3/1 4/4/1 
f 5/1/2 6/5/2 7/3/2 8/4/2 
s off
f 9/2/3 10/3/3 3/3/3 2/2/3 
f 10/3/4 11/4/4 4/4/4 3/3/4 
f 11/4/5 12/1/5 1/1/5 4/4/5 
f 12/1/6 9/2/6 2/2/6 1/1/6 
f 13/5/3 14/3/3 7/3/3 6/5/3 
f 14/3/6 15/4/6 8/4/6 7/3/6 
f 15/4/5 16/1/5 5/1/5 8/4/5 
f 16/1/4 13/5/4 6/5/4 5/1/4 
s 1
f 17/5/7 18/6/8 19/7/8 20/3/7 
f 21/8/9 22/9/10 23/10/10 24/11/9 
f 25/12/11 26/13/12 27/14/12 28/15/11 
f 29/16/1 30/17/13 31/18/13 32/19/1 
f 26/13/12 21/8/9 24/11/9 27/14/12 
f 18/6/8 25/12/11 28/15/11 19/7/8 
f 22/9/10 33/20/14 34/21/14 23/10/10 
f 35/2/15 36/6/16 37/7/16 38/3/15 
f 39/8/17 40/9/18 41/10/18 42/11/17 
f 43/12/19 44/13/20 45/14/20 46/15/19 
f 47/17/21 48/1/13 49/4/13 50/18/21 
f 51/16/2 47/17/21 50/18/21 52/19/2 
f 44/13/20 39/8/17 42/11/17 45/14/20 
f 36/6/16 43/12/19 46/15/19 37/7/16 
f 40/9/18 53/20/22 54/21/22 41/10/18 
f 55/22/3 56/23/3 54/21/22 53/20/22 
f 34/21/14 33/20/14 56/24/3 55/23/3 
f 30/17/13 57/1/21 58/4/21 31/18/13 
usemtl _TrackPiece_Straight_LongMaterial_001
f 57/25/2 58/26/2 59/27/2 60/28/2 
f 48/29/1 49/30/1 61/31/1 62/32/1 
usemtl _TrackPiece_Straight_LongMaterial
s off
f 35/2/23 38/3/23 10/3/23 9/2/23 
f 38/3/24 49/4/24 11/4/24 10/3/24 
f 49/4/24 48/1/24 12/1/24 11/4/24 
f 48/1/24 35/2/24 9/2/24 12/1/24 
f 17/5/25 20/3/25 14/3/25 13/5/25 
f 20/3/26 58/4/26 63/4/26 14/3/26 
f 58/4/27 57/1/27 16/1/27 63/4/27 
f 57/1/2 17/5/2 13/5/2 16/1/2 
f 63/4/28 16/1/28 13/5/28 14/3/28 
f 9/2/1 10/3/1 11/4/1 12/1/1 
# 40 polygons

