# Blender v2.76 (sub 0) OBJ File: 'TrackPieces_Blocking.blend'
# www.blender.org
mtllib TrackPiece_Straight_Slope_Steep_End.mtl
o TrackPiece_Straight_Hill_Steep_End_Cube.002
v -3.234450 8.000000 6.000000
v 3.234449 8.000000 6.000000
v -3.234450 7.907370 4.909091
v -3.234450 7.802575 4.319934
v -3.234450 7.424238 3.200000
v -3.234450 6.579616 1.636364
v 3.234450 6.579616 1.636364
v 3.234450 7.424238 3.200000
v 3.234450 7.802575 4.319934
v 3.234450 7.907370 4.909091
v 3.234450 21.114326 6.000000
v 3.234450 19.679646 1.636364
v 3.234450 20.524269 3.200000
v 3.234450 20.902607 4.319934
v 3.234450 21.007406 4.909091
v -3.234450 21.114326 6.000000
v -3.234450 21.007406 4.909091
v -3.234450 20.902607 4.319934
v -3.234450 20.524269 3.200000
v -3.234450 19.679646 1.636364
v -3.234450 5.313233 6.000000
v -1.796233 4.000000 6.000000
v -2.472347 4.136343 6.000000
v -3.026149 4.645155 6.000000
v -3.678049 8.000000 6.000000
v -3.678049 4.000000 6.000000
v -2.776060 4.333034 6.000000
v -3.174337 5.021823 6.000000
v -2.139163 4.039114 6.000000
v 3.234449 5.313233 6.000000
v 1.796233 4.000000 6.000000
v 2.472347 4.136343 6.000000
v 3.026149 4.645155 6.000000
v 3.678048 8.000000 6.000000
v 3.678048 4.000000 6.000000
v 2.776059 4.333034 6.000000
v 3.174337 5.021823 6.000000
v 2.139163 4.039114 6.000000
v -0.000000 4.000000 6.000000
v -3.234450 5.220603 4.909091
v -3.234450 5.115808 4.319934
v -3.234450 4.737471 3.200000
v -3.234450 3.892848 1.636364
v -1.796233 2.579615 1.636364
v -1.796233 3.424238 3.200000
v -1.796233 3.802575 4.319934
v -1.796233 3.907371 4.909091
v -2.472347 2.715958 1.636364
v -2.472347 3.560581 3.200000
v -2.472347 3.938918 4.319934
v -2.472347 4.043714 4.909091
v -3.026149 3.224770 1.636364
v -3.026149 4.069393 3.200000
v -3.026149 4.447730 4.319934
v -3.026149 4.552526 4.909091
v -3.678049 7.907370 4.909091
v -3.678049 7.802575 4.319934
v -3.678049 7.424238 3.200000
v -3.678049 6.579616 1.636364
v -3.678049 3.907371 4.909091
v -3.678049 3.802575 4.319934
v -3.678049 3.424238 3.200000
v -3.678049 2.579615 1.636364
v -2.776060 2.912649 1.636364
v -2.776060 3.757273 3.200000
v -2.776060 4.135610 4.319934
v -2.776060 4.240405 4.909091
v -3.174337 3.601438 1.636364
v -3.174337 4.446061 3.200000
v -3.174338 4.824397 4.319934
v -3.174337 4.929193 4.909091
v -2.139163 2.618729 1.636364
v -2.139163 3.463352 3.200000
v -2.139163 3.841689 4.319934
v -2.139163 3.946485 4.909091
v 3.234450 3.892848 1.636364
v 3.234450 4.737471 3.200000
v 3.234450 5.115808 4.319934
v 3.234450 5.220603 4.909091
v 1.796233 3.907371 4.909091
v 1.796233 3.802575 4.319934
v 1.796233 3.424238 3.200000
v 1.796233 2.579615 1.636364
v 2.472347 4.043714 4.909091
v 2.472347 3.938918 4.319934
v 2.472347 3.560581 3.200000
v 2.472347 2.715958 1.636364
v 3.026150 4.552526 4.909091
v 3.026149 4.447730 4.319934
v 3.026150 4.069393 3.200000
v 3.026149 3.224770 1.636364
v 3.678049 6.579616 1.636364
v 3.678049 7.424238 3.200000
v 3.678049 7.802575 4.319934
v 3.678049 7.907370 4.909091
v 3.678049 2.579615 1.636364
v 3.678049 3.424238 3.200000
v 3.678049 3.802575 4.319934
v 3.678049 3.907371 4.909091
v 2.776060 4.240405 4.909091
v 2.776060 4.135610 4.319934
v 2.776060 3.757273 3.200000
v 2.776060 2.912649 1.636364
v 3.174338 4.929193 4.909091
v 3.174338 4.824397 4.319934
v 3.174338 4.446061 3.200000
v 3.174338 3.601438 1.636364
v 2.139163 3.946485 4.909091
v 2.139163 3.841689 4.319934
v 2.139163 3.463352 3.200000
v 2.139163 2.618729 1.636364
v 0.000000 3.907371 4.909091
v -0.000000 3.802575 4.319934
v 0.000000 3.424238 3.200000
v 0.000000 2.579615 1.636364
vt 0.096813 0.666155
vt 0.007100 0.666155
vt 0.007100 0.639761
vt 0.096813 0.639760
vt 0.096814 0.800424
vt 0.007100 0.800424
vt 0.007100 0.769636
vt 0.096814 0.769636
vt 0.096814 0.737538
vt 0.007100 0.737539
vt 0.007100 0.702060
vt 0.096814 0.702060
vt 0.096813 0.362081
vt 0.007099 0.362081
vt 0.007099 0.007260
vt 0.096813 0.007260
vt 0.096814 0.831041
vt 0.007100 0.831041
vt 0.993950 0.831042
vt 0.993950 0.990377
vt 0.904237 0.990377
vt 0.904237 0.831042
vt 0.814523 0.990377
vt 0.814523 0.831042
vt 0.724810 0.990377
vt 0.724810 0.831042
vt 0.635096 0.990377
vt 0.635096 0.831042
vt 0.007100 0.990376
vt 0.096814 0.990376
vt 0.186527 0.831041
vt 0.186527 0.990377
vt 0.276241 0.831041
vt 0.276241 0.990377
vt 0.365954 0.831041
vt 0.365954 0.990377
vt 0.276241 0.800424
vt 0.365955 0.800424
vt 0.186527 0.800424
vt 0.365954 0.702059
vt 0.276241 0.702059
vt 0.276241 0.666154
vt 0.365954 0.666154
vt 0.186527 0.702060
vt 0.186527 0.666154
vt 0.365954 0.769635
vt 0.276241 0.769635
vt 0.276241 0.737538
vt 0.365954 0.737538
vt 0.186527 0.769635
vt 0.186527 0.737538
vt 0.365954 0.362081
vt 0.276240 0.362081
vt 0.276240 0.007260
vt 0.365954 0.007260
vt 0.186526 0.362081
vt 0.186526 0.007260
vt 0.186527 0.639760
vt 0.096813 0.401430
vt 0.186526 0.401430
vt 0.276240 0.639760
vt 0.365954 0.639760
vt 0.904237 0.800424
vt 0.993950 0.800424
vt 0.814523 0.800424
vt 0.724810 0.800424
vt 0.635096 0.800424
vt 0.993950 0.702057
vt 0.904237 0.702057
vt 0.904237 0.666152
vt 0.993950 0.666152
vt 0.814523 0.702058
vt 0.814523 0.666153
vt 0.724810 0.702058
vt 0.724810 0.666153
vt 0.635096 0.702059
vt 0.635096 0.666153
vt 0.993950 0.769634
vt 0.904237 0.769635
vt 0.904237 0.737537
vt 0.993950 0.737537
vt 0.814523 0.769635
vt 0.814523 0.737538
vt 0.724810 0.769635
vt 0.724810 0.737538
vt 0.635096 0.769635
vt 0.635096 0.737538
vt 0.993949 0.362081
vt 0.904236 0.362081
vt 0.904235 0.007260
vt 0.993949 0.007260
vt 0.814522 0.362081
vt 0.814522 0.007260
vt 0.724808 0.362081
vt 0.724808 0.007260
vt 0.635095 0.362081
vt 0.635094 0.007260
vt 0.904236 0.639759
vt 0.814523 0.639759
vt 0.814522 0.401428
vt 0.904236 0.401428
vt 0.724808 0.401429
vt 0.724809 0.639759
vt 0.993950 0.639758
vt 0.635096 0.639760
vt 0.635095 0.401429
vt 0.007099 0.401430
vt 0.276240 0.401430
vt 0.365954 0.401429
vt 0.993949 0.401428
vt 0.368735 0.087405
vt 0.438282 0.146525
vt 0.438281 0.960020
vt 0.368734 0.900900
vt 0.542612 0.186401
vt 0.542612 0.999896
vt 0.474867 0.983510
vt 0.474868 0.170015
vt 0.271636 0.000104
vt 0.271634 0.813599
vt 0.104729 0.146467
vt 0.174296 0.087372
vt 0.174016 0.900867
vt 0.104449 0.959963
vt 0.000386 0.186307
vt 0.068135 0.169945
vt 0.067855 0.983441
vt 0.000104 0.999803
vt 0.271426 0.000104
vt 0.271147 0.813599
vn -0.958500 0.282600 -0.036800
vn -0.959500 0.280800 -0.023800
vn -0.995300 0.096100 -0.008100
vn -0.995000 0.098600 -0.012500
vn -0.196300 0.972200 -0.127800
vn -0.197600 0.976700 -0.082900
vn -0.418000 0.905200 -0.076800
vn -0.415000 0.902000 -0.118700
vn -0.669900 0.736100 -0.096700
vn -0.673500 0.736500 -0.062500
vn -0.867900 0.494800 -0.042000
vn -0.865400 0.496900 -0.064900
vn 0.697000 0.711000 -0.093200
vn 0.687200 0.723800 -0.061400
vn 1.000000 0.000000 0.000000
vn -0.056300 0.989900 -0.130000
vn -0.056700 0.994800 -0.084400
vn 0.056700 0.994800 -0.084400
vn 0.000000 0.996400 -0.084600
vn 0.000000 0.991500 -0.130000
vn 0.056300 0.989900 -0.130000
vn 0.000000 0.968700 -0.248300
vn 0.055100 0.967000 -0.248500
vn 0.000000 0.916900 -0.399100
vn 0.052200 0.915200 -0.399600
vn 0.000000 0.879800 -0.475200
vn 0.049100 0.878800 -0.474700
vn -0.055100 0.967000 -0.248500
vn -0.052200 0.915200 -0.399700
vn -0.049100 0.878800 -0.474700
vn -0.182300 0.900800 -0.394100
vn -0.170200 0.867000 -0.468300
vn -0.192200 0.950300 -0.244600
vn -0.811900 0.513700 -0.277500
vn -0.850000 0.483200 -0.209800
vn -0.952800 0.278500 -0.120300
vn -0.937900 0.305200 -0.164800
vn -0.861700 0.491600 -0.125600
vn -0.957200 0.280500 -0.071400
vn -0.358900 0.821200 -0.443600
vn -0.390000 0.843200 -0.369900
vn -0.643200 0.701400 -0.307000
vn -0.598300 0.704900 -0.380800
vn -0.408100 0.884000 -0.228000
vn -0.662900 0.725000 -0.186500
vn 0.796000 0.532500 -0.287600
vn 0.688500 0.664900 -0.289400
vn 0.690600 0.700500 -0.179500
vn -0.995000 0.096700 -0.023600
vn -0.894600 0.443000 -0.058100
vn -0.894900 0.432200 -0.110800
vn -0.994600 0.095900 -0.039400
vn -0.988600 0.132600 -0.071600
vn 0.196300 0.972200 -0.127800
vn 0.197600 0.976700 -0.082900
vn 0.192200 0.950300 -0.244600
vn 0.182300 0.900800 -0.394100
vn 0.170200 0.867000 -0.468300
vn 0.867900 0.494800 -0.042000
vn 0.865400 0.496900 -0.064900
vn 0.958500 0.282600 -0.036800
vn 0.959500 0.280800 -0.023800
vn 0.861700 0.491600 -0.125600
vn 0.957200 0.280500 -0.071400
vn 0.850000 0.483200 -0.209800
vn 0.952800 0.278500 -0.120300
vn 0.811900 0.513700 -0.277500
vn 0.937900 0.305200 -0.164800
vn 0.418000 0.905200 -0.076800
vn 0.415000 0.902000 -0.118700
vn 0.669900 0.736100 -0.096700
vn 0.673500 0.736500 -0.062500
vn 0.408100 0.884000 -0.228000
vn 0.662900 0.725000 -0.186500
vn 0.390000 0.843200 -0.369900
vn 0.643200 0.701400 -0.307000
vn 0.358900 0.821200 -0.443600
vn 0.598300 0.704900 -0.380800
vn -0.687200 0.723800 -0.061400
vn -0.697000 0.711000 -0.093200
vn -1.000000 0.000000 0.000000
vn -0.690600 0.700500 -0.179500
vn -0.688500 0.664900 -0.289400
vn -0.796000 0.532500 -0.287600
vn 0.995000 0.098600 -0.012500
vn 0.995000 0.096700 -0.023600
vn 0.894900 0.432200 -0.110800
vn 0.894600 0.443000 -0.058100
vn 0.895000 0.408900 -0.178000
vn 0.994600 0.095900 -0.039400
vn 0.995300 0.096100 -0.008100
vn 0.988600 0.132600 -0.071600
vn 0.894400 0.393500 -0.212500
vn -0.894400 0.445600 -0.037800
vn -0.895000 0.408900 -0.178000
vn -0.894400 0.393500 -0.212500
vn 0.894400 0.445600 -0.037800
usemtl Material.009
s 1
f 104/1/1 37/2/2 30/3/3 79/4/4
f 108/5/5 38/6/6 32/7/7 84/8/8
f 100/9/9 36/10/10 33/11/11 88/12/12
f 95/13/13 34/14/14 35/15/15 99/16/15
f 84/8/8 32/7/7 36/10/10 100/9/9
f 88/12/12 33/11/11 37/2/2 104/1/1
f 80/17/16 31/18/17 38/6/6 108/5/5
f 22/19/18 39/20/19 112/21/20 47/22/21
f 47/22/21 112/21/20 113/23/22 46/24/23
f 46/24/23 113/23/22 114/25/24 45/26/25
f 45/26/25 114/25/24 115/27/26 44/28/27
f 39/29/19 31/18/17 80/17/16 112/30/20
f 112/30/20 80/17/16 81/31/28 113/32/22
f 113/32/22 81/31/28 82/33/29 114/34/24
f 114/34/24 82/33/29 83/35/30 115/36/26
f 83/35/30 82/33/29 110/37/31 111/38/32
f 82/33/29 81/31/28 109/39/33 110/37/31
f 81/31/28 80/17/16 108/5/5 109/39/33
f 91/40/34 90/41/35 106/42/36 107/43/37
f 90/41/35 89/44/38 105/45/39 106/42/36
f 89/44/38 88/12/12 104/1/1 105/45/39
f 87/46/40 86/47/41 102/48/42 103/49/43
f 86/47/41 85/50/44 101/51/45 102/48/42
f 85/50/44 84/8/8 100/9/9 101/51/45
f 92/52/46 93/53/47 97/54/15 96/55/15
f 93/53/47 94/56/48 98/57/15 97/54/15
f 94/56/48 95/13/13 99/16/15 98/57/15
f 78/58/49 79/4/4 10/59/50 9/60/51
f 9/60/51 10/59/50 95/13/13 94/56/48
f 103/49/43 102/48/42 90/41/35 91/40/34
f 102/48/42 101/51/45 89/44/38 90/41/35
f 101/51/45 100/9/9 88/12/12 89/44/38
f 111/38/32 110/37/31 86/47/41 87/46/40
f 110/37/31 109/39/33 85/50/44 86/47/41
f 109/39/33 108/5/5 84/8/8 85/50/44
f 107/43/37 106/42/36 77/61/52 76/62/53
f 106/42/36 105/45/39 78/58/49 77/61/52
f 105/45/39 104/1/1 79/4/4 78/58/49
f 22/19/18 47/22/21 75/63/54 29/64/55
f 47/22/21 46/24/23 74/65/56 75/63/54
f 46/24/23 45/26/25 73/66/57 74/65/56
f 45/26/25 44/28/27 72/67/58 73/66/57
f 24/68/59 55/69/60 71/70/61 28/71/62
f 55/69/60 54/72/63 70/73/64 71/70/61
f 54/72/63 53/74/65 69/75/66 70/73/64
f 53/74/65 52/76/67 68/77/68 69/75/66
f 23/78/69 51/79/70 67/80/71 27/81/72
f 51/79/70 50/82/73 66/83/74 67/80/71
f 50/82/73 49/84/75 65/85/76 66/83/74
f 49/84/75 48/86/77 64/87/78 65/85/76
f 25/88/79 56/89/80 60/90/81 26/91/81
f 56/89/80 57/92/82 61/93/81 60/90/81
f 57/92/82 58/94/83 62/95/81 61/93/81
f 58/94/83 59/96/84 63/97/81 62/95/81
f 40/98/85 41/99/86 4/100/87 3/101/88
f 4/100/87 5/102/89 58/94/83 57/92/82
f 3/101/88 4/100/87 57/92/82 56/89/80
f 41/99/86 42/103/90 5/102/89 4/100/87
f 27/81/72 67/80/71 55/69/60 24/68/59
f 67/80/71 66/83/74 54/72/63 55/69/60
f 66/83/74 65/85/76 53/74/65 54/72/63
f 65/85/76 64/87/78 52/76/67 53/74/65
f 29/64/55 75/63/54 51/79/70 23/78/69
f 75/63/54 74/65/56 50/82/73 51/79/70
f 74/65/56 73/66/57 49/84/75 50/82/73
f 73/66/57 72/67/58 48/86/77 49/84/75
f 28/71/62 71/70/61 40/98/85 21/104/91
f 71/70/61 70/73/64 41/99/86 40/98/85
f 70/73/64 69/75/66 42/103/90 41/99/86
f 69/75/66 68/77/68 43/105/92 42/103/90
f 5/102/89 6/106/93 59/96/84 58/94/83
f 42/103/90 43/105/92 6/106/93 5/102/89
f 79/4/4 30/3/3 2/107/94 10/59/50
f 10/59/50 2/107/94 34/14/14 95/13/13
f 77/61/52 78/58/49 9/60/51 8/108/95
f 8/108/95 9/60/51 94/56/48 93/53/47
f 7/109/96 8/108/95 93/53/47 92/52/46
f 76/62/53 77/61/52 8/108/95 7/109/96
f 1/110/97 3/101/88 56/89/80 25/88/79
f 21/104/91 40/98/85 3/101/88 1/110/97
usemtl Material.008
f 8/111/95 9/112/51 14/113/81 13/114/81
f 2/115/94 11/116/81 15/117/81 10/118/50
f 9/112/51 10/118/50 15/117/81 14/113/81
f 7/119/96 8/111/95 13/114/81 12/120/81
f 4/121/87 5/122/89 19/123/15 18/124/15
f 1/125/97 3/126/88 17/127/15 16/128/15
f 5/122/89 6/129/93 20/130/15 19/123/15
f 3/126/88 4/121/87 18/124/15 17/127/15
