# Blender v2.76 (sub 0) OBJ File: 'TrackPieces_Blocking.blend'
# www.blender.org
mtllib TrackPiece_Straight_Slope_Steep_Start.mtl
o TrackPiece_Straight_Hill_Steep_Start_Cube.004
v -3.234450 4.000000 -6.000000
v 3.234449 4.000000 -6.000000
v -3.234450 5.001359 -1.636364
v -3.234450 4.492213 -3.200000
v -3.234450 4.234764 -4.200000
v -3.234450 4.114813 -4.909091
v 3.234449 4.114813 -4.909091
v 3.234449 4.234764 -4.200000
v 3.234449 4.492213 -3.200000
v 3.234449 5.001359 -1.636364
v -3.234450 23.975300 -6.000000
v -3.234450 24.976660 -1.636364
v -3.234450 24.467514 -3.200000
v -3.234450 24.210064 -4.200000
v -3.234450 24.090113 -4.909091
v 3.234449 23.975298 -6.000000
v 3.234449 24.090113 -4.909091
v 3.234449 24.210064 -4.200000
v 3.234449 24.467510 -3.200000
v 3.234449 24.976656 -1.636364
v -3.234450 1.313233 -6.000000
v -1.796233 0.000000 -6.000000
v -2.472347 0.136343 -6.000000
v -3.026149 0.645155 -6.000000
v -3.234450 4.000000 -6.000000
v -3.678049 4.000000 -6.000000
v -3.678049 0.000000 -6.000000
v -2.776060 0.333034 -6.000000
v -3.174337 1.021823 -6.000000
v -2.139163 0.039114 -6.000000
v 3.234449 1.313233 -6.000000
v 1.796233 0.000000 -6.000000
v 2.472347 0.136343 -6.000000
v 3.026149 0.645155 -6.000000
v 3.234449 4.000000 -6.000000
v 3.678048 4.000000 -6.000000
v 3.678048 0.000000 -6.000000
v 2.776059 0.333034 -6.000000
v 3.174337 1.021823 -6.000000
v 2.139163 0.039114 -6.000000
v -0.000000 0.000000 -6.000000
v -1.109837 -2.386839 1.589966
v -0.946096 -2.314566 1.479546
v -0.745916 -2.280558 1.504789
v -3.234450 2.314593 -1.636364
v -3.234450 1.805446 -3.200000
v -3.234450 1.547997 -4.200000
v -3.234450 1.428047 -4.909091
v -1.796233 0.114813 -4.909091
v -1.796233 0.234764 -4.200000
v -1.796233 0.492213 -3.200000
v -1.796233 1.001359 -1.636364
v -2.472347 0.251156 -4.909091
v -2.472347 0.371107 -4.200000
v -2.472347 0.628556 -3.200000
v -2.472347 1.137702 -1.636364
v -3.026149 0.759968 -4.909091
v -3.026149 0.879919 -4.200000
v -3.026149 1.137367 -3.200000
v -3.026149 1.646514 -1.636364
v -3.234450 5.001359 -1.636364
v -3.234450 4.492213 -3.200000
v -3.234450 4.234764 -4.200000
v -3.234450 4.114813 -4.909091
v -3.678049 5.001359 -1.636364
v -3.678049 4.492213 -3.200000
v -3.678049 4.234764 -4.200000
v -3.678049 4.114813 -4.909091
v -3.678049 1.001359 -1.636364
v -3.678049 0.492213 -3.200000
v -3.678049 0.234764 -4.200000
v -3.678049 0.114813 -4.909091
v -2.776060 0.447847 -4.909091
v -2.776060 0.567798 -4.200000
v -2.776060 0.825247 -3.200000
v -2.776060 1.334394 -1.636364
v -3.174337 1.136636 -4.909091
v -3.174337 1.256587 -4.200000
v -3.174337 1.514035 -3.200000
v -3.174337 2.023182 -1.636364
v -2.139163 0.153927 -4.909091
v -2.139163 0.273878 -4.200000
v -2.139163 0.531327 -3.200000
v -2.139163 1.040473 -1.636364
v 3.234449 1.428047 -4.909091
v 3.234449 1.547997 -4.200000
v 3.234449 1.805446 -3.200000
v 3.234449 2.314593 -1.636364
v 1.796233 1.001359 -1.636364
v 1.796233 0.492213 -3.200000
v 1.796233 0.234764 -4.200000
v 1.796233 0.114813 -4.909091
v 2.472347 1.137702 -1.636364
v 2.472347 0.628556 -3.200000
v 2.472347 0.371107 -4.200000
v 2.472347 0.251156 -4.909091
v 3.026149 1.646514 -1.636364
v 3.026149 1.137367 -3.200000
v 3.026149 0.879919 -4.200000
v 3.026149 0.759968 -4.909091
v 3.234449 4.114813 -4.909091
v 3.234449 4.234764 -4.200000
v 3.234449 4.492213 -3.200000
v 3.234449 5.001359 -1.636364
v 3.678048 4.114813 -4.909091
v 3.678048 4.234764 -4.200000
v 3.678048 4.492213 -3.200000
v 3.678048 5.001359 -1.636364
v 3.678048 0.114813 -4.909091
v 3.678048 0.234764 -4.200000
v 3.678048 0.492213 -3.200000
v 3.678048 1.001359 -1.636364
v 2.776060 1.334394 -1.636364
v 2.776060 0.825247 -3.200000
v 2.776059 0.567798 -4.200000
v 2.776059 0.447847 -4.909091
v 3.174337 2.023182 -1.636364
v 3.174337 1.514035 -3.200000
v 3.174337 1.256587 -4.200000
v 3.174337 1.136636 -4.909091
v 2.139163 1.040473 -1.636364
v 2.139163 0.531327 -3.200000
v 2.139163 0.273878 -4.200000
v 2.139163 0.153927 -4.909091
v -0.000000 1.001359 -1.636364
v -0.000000 0.492213 -3.200000
v -0.000000 0.234764 -4.200000
v -0.000000 0.114813 -4.909091
v -1.109837 -2.386839 1.589966
v -0.946096 -2.314566 1.479546
v -0.745916 -2.280558 1.504789
v -1.109837 -2.386839 1.589966
v -0.946096 -2.314566 1.479546
v -0.745916 -2.280558 1.504789
vt 0.614893 0.665767
vt 0.517659 0.665768
vt 0.517659 0.639247
vt 0.614892 0.639247
vt 0.614893 0.800680
vt 0.517659 0.800680
vt 0.517659 0.769744
vt 0.614892 0.769744
vt 0.614893 0.737493
vt 0.517659 0.737493
vt 0.517659 0.701845
vt 0.614892 0.701845
vt 0.517659 0.399775
vt 0.614892 0.399775
vt 0.517659 0.360237
vt 0.614892 0.360237
vt 0.517660 0.003715
vt 0.614893 0.003715
vt 0.614892 0.831444
vt 0.517659 0.831443
vt 0.309358 0.991546
vt 0.309359 0.831447
vt 0.406592 0.831447
vt 0.406591 0.991546
vt 0.614892 0.991543
vt 0.517659 0.991542
vt 0.906592 0.831445
vt 0.906591 0.991544
vt 0.809358 0.991543
vt 0.809359 0.831444
vt 0.712125 0.991543
vt 0.712126 0.831444
vt 0.017659 0.991545
vt 0.017659 0.831446
vt 0.114892 0.831446
vt 0.114892 0.991545
vt 0.212126 0.831446
vt 0.212125 0.991545
vt 0.309359 0.800682
vt 0.406592 0.800683
vt 0.212126 0.800682
vt 0.114892 0.800682
vt 0.017659 0.800682
vt 0.406592 0.701844
vt 0.309359 0.701844
vt 0.309359 0.665767
vt 0.406592 0.665767
vt 0.212126 0.701844
vt 0.212126 0.665767
vt 0.114893 0.701844
vt 0.114893 0.665767
vt 0.017660 0.701844
vt 0.017660 0.665767
vt 0.406592 0.769745
vt 0.309359 0.769745
vt 0.309359 0.737494
vt 0.406592 0.737494
vt 0.212126 0.769745
vt 0.212126 0.737494
vt 0.114892 0.769745
vt 0.114893 0.737494
vt 0.017659 0.769745
vt 0.017660 0.737494
vt 0.406592 0.360239
vt 0.309358 0.360238
vt 0.309359 0.003717
vt 0.406592 0.003717
vt 0.212125 0.360238
vt 0.212126 0.003717
vt 0.114892 0.360238
vt 0.114893 0.003716
vt 0.017659 0.360238
vt 0.017660 0.003716
vt 0.406592 0.399774
vt 0.309359 0.399774
vt 0.212126 0.399774
vt 0.114892 0.399774
vt 0.017659 0.399774
vt 0.406592 0.639247
vt 0.309359 0.639247
vt 0.212126 0.639247
vt 0.114892 0.639247
vt 0.017659 0.639247
vt 0.809359 0.800680
vt 0.906592 0.800680
vt 0.712126 0.800680
vt 0.906592 0.701844
vt 0.809359 0.701845
vt 0.809359 0.665767
vt 0.906592 0.665767
vt 0.712125 0.701845
vt 0.712126 0.665767
vt 0.906592 0.769744
vt 0.809359 0.769744
vt 0.809359 0.737493
vt 0.906592 0.737493
vt 0.712125 0.769744
vt 0.712126 0.737493
vt 0.906592 0.360237
vt 0.809358 0.360237
vt 0.809359 0.003715
vt 0.906592 0.003715
vt 0.712125 0.360237
vt 0.712126 0.003715
vt 0.906591 0.399774
vt 0.809358 0.399774
vt 0.712125 0.399774
vt 0.906592 0.639247
vt 0.809359 0.639247
vt 0.712126 0.639247
vt 0.189983 0.130639
vt 0.121937 0.061266
vt 0.121937 0.930538
vt 0.189983 0.999912
vt 0.078420 0.024011
vt 0.078419 0.893284
vt 0.000089 0.000087
vt 0.000087 0.869360
vt 0.047562 0.876667
vt 0.047562 0.007394
vt 0.268489 0.024011
vt 0.312006 0.061266
vt 0.312007 0.930539
vt 0.268488 0.893285
vt 0.190157 0.000087
vt 0.237631 0.007394
vt 0.237631 0.876668
vt 0.190157 0.869360
vt 0.380052 0.130639
vt 0.380052 0.999913
vn 0.957300 0.286400 -0.039500
vn 0.956500 0.290200 -0.030500
vn 0.994000 0.108200 -0.011400
vn 0.994500 0.103500 -0.014500
vn 0.195400 0.971600 -0.133000
vn 0.195300 0.975300 -0.102600
vn 0.410700 0.906700 -0.095400
vn 0.412100 0.902700 -0.123500
vn 0.665700 0.739200 -0.101300
vn 0.663300 0.744200 -0.078300
vn 0.859600 0.508000 -0.053500
vn 0.862000 0.502200 -0.069100
vn 0.729500 0.680100 -0.071600
vn 0.714200 0.693400 -0.095000
vn -0.729500 0.680100 -0.071600
vn -0.714200 0.693400 -0.095000
vn -1.000000 0.000000 0.000000
vn 0.056200 0.989200 -0.135400
vn 0.056200 0.992900 -0.104500
vn 0.000000 0.990700 -0.135800
vn -0.056200 0.989200 -0.135400
vn -0.056200 0.992900 -0.104500
vn 0.000000 0.994500 -0.104600
vn 0.054600 0.949400 -0.309200
vn 0.000000 0.950800 -0.309600
vn 0.000000 0.960100 -0.279600
vn 0.054400 0.958800 -0.278900
vn 0.000000 0.978100 -0.208200
vn 0.055400 0.976600 -0.207600
vn -0.054600 0.949400 -0.309200
vn -0.054400 0.958800 -0.278900
vn -0.055400 0.976600 -0.207600
vn -0.195400 0.971600 -0.133000
vn -0.195300 0.975300 -0.102600
vn -0.192900 0.959800 -0.203900
vn -0.189700 0.942800 -0.274100
vn -0.191300 0.933300 -0.303900
vn -0.859600 0.508000 -0.053400
vn -0.862000 0.502200 -0.069100
vn -0.957300 0.286400 -0.039500
vn -0.956500 0.290200 -0.030500
vn -0.858800 0.501000 -0.107200
vn -0.956100 0.286600 -0.061500
vn -0.855200 0.497500 -0.145400
vn -0.954700 0.285500 -0.083700
vn -0.867700 0.472600 -0.153900
vn -0.959400 0.268200 -0.087300
vn -0.410700 0.906700 -0.095400
vn -0.412100 0.902700 -0.123500
vn -0.665700 0.739200 -0.101300
vn -0.663300 0.744200 -0.078300
vn -0.407600 0.893200 -0.189700
vn -0.660700 0.734200 -0.156300
vn -0.402000 0.879200 -0.255500
vn -0.654700 0.725700 -0.211300
vn -0.410100 0.867200 -0.282400
vn -0.668300 0.707300 -0.230300
vn 1.000000 0.000000 0.000000
vn 0.716700 0.682100 -0.145200
vn 0.714200 0.672000 -0.195700
vn 0.624500 0.742600 -0.241800
vn -0.716700 0.682100 -0.145200
vn -0.714200 0.672000 -0.195700
vn -0.624500 0.742600 -0.241800
vn -0.994000 0.108200 -0.011400
vn -0.994500 0.103500 -0.014500
vn -0.994300 0.104100 -0.022800
vn -0.994100 0.103400 -0.030700
vn -0.996300 0.081300 -0.026500
vn 0.189700 0.942800 -0.274100
vn 0.191300 0.933300 -0.303900
vn 0.192900 0.959800 -0.203900
vn 0.867700 0.472600 -0.153900
vn 0.855200 0.497500 -0.145400
vn 0.954700 0.285500 -0.083700
vn 0.959400 0.268200 -0.087300
vn 0.858800 0.501000 -0.107200
vn 0.956100 0.286600 -0.061500
vn 0.410100 0.867200 -0.282400
vn 0.402000 0.879200 -0.255500
vn 0.654700 0.725700 -0.211300
vn 0.668300 0.707300 -0.230300
vn 0.407600 0.893200 -0.189700
vn 0.660700 0.734200 -0.156300
vn 0.996300 0.081300 -0.026500
vn 0.994100 0.103400 -0.030700
vn 0.994300 0.104100 -0.022800
usemtl Material.005
s 1
f 77/1/1 29/2/2 21/3/3 48/4/4
f 81/5/5 30/6/6 23/7/7 53/8/8
f 73/9/9 28/10/10 24/11/11 57/12/12
f 48/4/4 21/3/3 25/13/13 64/14/14
f 64/14/14 25/13/13 26/15/15 68/16/16
f 68/16/16 26/15/15 27/17/17 72/18/17
f 53/8/8 23/7/7 28/10/10 73/9/9
f 57/12/12 24/11/11 29/2/2 77/1/1
f 49/19/18 22/20/19 30/6/6 81/5/5
f 128/21/20 92/22/21 32/23/22 41/24/23
f 49/19/18 128/25/20 41/26/23 22/20/19
f 52/27/24 125/28/25 126/29/26 51/30/27
f 51/30/27 126/29/26 127/31/28 50/32/29
f 50/32/29 127/31/28 128/25/20 49/19/18
f 125/33/25 89/34/30 90/35/31 126/36/26
f 126/36/26 90/35/31 91/37/32 127/38/28
f 127/38/28 91/37/32 92/22/21 128/21/20
f 32/23/22 92/22/21 124/39/33 40/40/34
f 92/22/21 91/37/32 123/41/35 124/39/33
f 91/37/32 90/35/31 122/42/36 123/41/35
f 90/35/31 89/34/30 121/43/37 122/42/36
f 34/44/38 100/45/39 120/46/40 39/47/41
f 100/45/39 99/48/42 119/49/43 120/46/40
f 99/48/42 98/50/44 118/51/45 119/49/43
f 98/50/44 97/52/46 117/53/47 118/51/45
f 33/54/48 96/55/49 116/56/50 38/57/51
f 96/55/49 95/58/52 115/59/53 116/56/50
f 95/58/52 94/60/54 114/61/55 115/59/53
f 94/60/54 93/62/56 113/63/57 114/61/55
f 36/64/13 105/65/14 109/66/58 37/67/58
f 105/65/14 106/68/59 110/69/58 109/66/58
f 106/68/59 107/70/60 111/71/58 110/69/58
f 107/70/60 108/72/61 112/73/58 111/71/58
f 35/74/15 101/75/16 105/65/14 36/64/13
f 101/75/16 102/76/62 106/68/59 105/65/14
f 102/76/62 103/77/63 107/70/60 106/68/59
f 103/77/63 104/78/64 108/72/61 107/70/60
f 31/79/65 85/80/66 101/75/16 35/74/15
f 85/80/66 86/81/67 102/76/62 101/75/16
f 86/81/67 87/82/68 103/77/63 102/76/62
f 87/82/68 88/83/69 104/78/64 103/77/63
f 38/57/51 116/56/50 100/45/39 34/44/38
f 116/56/50 115/59/53 99/48/42 100/45/39
f 115/59/53 114/61/55 98/50/44 99/48/42
f 114/61/55 113/63/57 97/52/46 98/50/44
f 40/40/34 124/39/33 96/55/49 33/54/48
f 124/39/33 123/41/35 95/58/52 96/55/49
f 123/41/35 122/42/36 94/60/54 95/58/52
f 122/42/36 121/43/37 93/62/56 94/60/54
f 39/47/41 120/46/40 85/80/66 31/79/65
f 120/46/40 119/49/43 86/81/67 85/80/66
f 119/49/43 118/51/45 87/82/68 86/81/67
f 118/51/45 117/53/47 88/83/69 87/82/68
f 52/27/24 51/30/27 83/84/70 84/85/71
f 51/30/27 50/32/29 82/86/72 83/84/70
f 50/32/29 49/19/18 81/5/5 82/86/72
f 60/87/73 59/88/74 79/89/75 80/90/76
f 59/88/74 58/91/77 78/92/78 79/89/75
f 58/91/77 57/12/12 77/1/1 78/92/78
f 56/93/79 55/94/80 75/95/81 76/96/82
f 55/94/80 54/97/83 74/98/84 75/95/81
f 54/97/83 53/8/8 73/9/9 74/98/84
f 65/99/64 66/100/63 70/101/17 69/102/17
f 66/100/63 67/103/62 71/104/17 70/101/17
f 67/103/62 68/16/16 72/18/17 71/104/17
f 61/105/61 62/106/60 66/100/63 65/99/64
f 62/106/60 63/107/59 67/103/62 66/100/63
f 63/107/59 64/14/14 68/16/16 67/103/62
f 45/108/85 46/109/86 62/106/60 61/105/61
f 46/109/86 47/110/87 63/107/59 62/106/60
f 47/110/87 48/4/4 64/14/14 63/107/59
f 76/96/82 75/95/81 59/88/74 60/87/73
f 75/95/81 74/98/84 58/91/77 59/88/74
f 74/98/84 73/9/9 57/12/12 58/91/77
f 84/85/71 83/84/70 55/94/80 56/93/79
f 83/84/70 82/86/72 54/97/83 55/94/80
f 82/86/72 81/5/5 53/8/8 54/97/83
f 80/90/76 79/89/75 46/109/86 45/108/85
f 79/89/75 78/92/78 47/110/87 46/109/86
f 78/92/78 77/1/1 48/4/4 47/110/87
usemtl Material.004
f 3/111/58 4/112/58 13/113/58 12/114/58
f 4/112/58 5/115/58 14/116/58 13/113/58
f 1/117/58 11/118/58 15/119/58 6/120/58
f 5/115/58 6/120/58 15/119/58 14/116/58
f 8/121/17 9/122/17 19/123/17 18/124/17
f 2/125/17 7/126/17 17/127/17 16/128/17
f 9/122/17 10/129/17 20/130/17 19/123/17
f 7/126/17 8/121/17 18/124/17 17/127/17
